<?xml version="1.0" encoding="UTF-8"?>
<svg id="Layer_1" data-name="Layer 1" xmlns="http://www.w3.org/2000/svg" viewBox="0 0 258.37 212.19">
  <defs>
    <style>
      .cls-1 {
        fill: none;
      }
    </style>
  </defs>
  <path class="cls-1" d="M213.23,66.2c-1.88-.9-3.84-1.75-5.83-2.58v32.18c0,1.93-.38,3.3-1.14,4.11-.76,.81-2.05,1.22-3.88,1.22h-32.24c-1.82,0-3.12-.4-3.88-1.22-.76-.81-1.14-2.18-1.14-4.11V52.76h-5.78v43.03c0,1.93-.38,3.3-1.14,4.11-.76,.81-2.05,1.22-3.88,1.22h-32.24c-1.82,0-3.12-.4-3.88-1.22-.76-.81-1.14-2.18-1.14-4.11V49.9c-27.19,1.3-52.39,6.97-71.94,16.3-21.6,10.31-33.5,23.68-33.5,37.66s11.9,27.35,33.5,37.66c1.28,.61,2.59,1.2,3.92,1.78v-14.91c0-2.53-.2-4.38-.61-5.55-.41-1.16-1.12-2.23-2.13-3.19-1.01-.96-2.74-2.25-5.17-3.88-.51-.3-.76-.76-.76-1.37v-1.82c0-1.01,.61-1.52,1.82-1.52h44.1c1.82,0,3.12,.41,3.88,1.22,.76,.81,1.14,2.18,1.14,4.11v38.8c1.91,.3,3.84,.59,5.78,.84v-39.65c0-1.92,.38-3.29,1.14-4.11,.76-.81,2.05-1.22,3.88-1.22h32.24c1.82,0,3.12,.41,3.88,1.22,.76,.81,1.14,2.18,1.14,4.11v41.52c27.92-1.12,53.84-6.83,73.85-16.38,21.6-10.31,33.5-23.68,33.5-37.66s-11.9-27.35-33.5-37.66Z"/>
  <path d="M219.52,58.32c-3.84-1.83-7.9-3.52-12.12-5.09V5.32c0-1.92-.38-3.29-1.14-4.11-.76-.81-2.05-1.22-3.88-1.22h-32.24c-1.82,0-3.12,.41-3.88,1.22-.76,.81-1.14,2.18-1.14,4.11V42.86c-1.91-.27-3.84-.52-5.78-.74V5.32c0-1.92-.38-3.29-1.14-4.11-.76-.81-2.05-1.22-3.88-1.22h-44.1c-1.22,0-1.82,.51-1.82,1.52v1.82c0,.61,.25,1.06,.76,1.37,2.43,1.62,4.16,2.92,5.17,3.88,1.01,.96,1.72,2.03,2.13,3.19,.4,1.17,.61,3.02,.61,5.55v23.34c-29.48,1.33-56.9,7.47-78.23,17.65C13.8,70.28,0,86.45,0,103.87s13.8,33.59,38.85,45.54c3.26,1.56,6.68,3.01,10.21,4.38v53.08c0,1.93,.38,3.3,1.14,4.11,.76,.81,2.05,1.22,3.88,1.22h32.24c1.82,0,3.12-.4,3.88-1.22,.76-.81,1.14-2.18,1.14-4.11v-42.26c1.91,.28,3.84,.54,5.78,.78v41.48c0,1.93,.38,3.3,1.14,4.11,.76,.81,2.05,1.22,3.88,1.22h32.24c1.82,0,3.12-.4,3.88-1.22,.76-.81,1.14-2.18,1.14-4.11v-39.73c30.2-1.14,58.35-7.32,80.14-17.72,25.05-11.95,38.85-28.13,38.85-45.54s-13.8-33.59-38.85-45.54Zm-6.29,83.21c-20.01,9.55-45.93,15.25-73.85,16.38v-41.52c0-1.92-.38-3.29-1.14-4.11-.76-.81-2.05-1.22-3.88-1.22h-32.24c-1.82,0-3.12,.41-3.88,1.22-.76,.81-1.14,2.18-1.14,4.11v39.65c-1.94-.26-3.87-.54-5.78-.84v-38.8c0-1.92-.38-3.29-1.14-4.11-.76-.81-2.05-1.22-3.88-1.22H42.21c-1.22,0-1.82,.51-1.82,1.52v1.82c0,.61,.25,1.06,.76,1.37,2.43,1.62,4.16,2.92,5.17,3.88,1.01,.96,1.72,2.03,2.13,3.19,.4,1.17,.61,3.02,.61,5.55v14.91c-1.33-.58-2.64-1.17-3.92-1.78-21.6-10.31-33.5-23.68-33.5-37.66s11.9-27.35,33.5-37.66c19.55-9.33,44.75-15,71.94-16.3v45.9c0,1.93,.38,3.3,1.14,4.11,.76,.81,2.05,1.22,3.88,1.22h32.24c1.82,0,3.12-.4,3.88-1.22,.76-.81,1.14-2.18,1.14-4.11V52.76h5.78v43.03c0,1.93,.38,3.3,1.14,4.11,.76,.81,2.05,1.22,3.88,1.22h32.24c1.82,0,3.12-.4,3.88-1.22,.76-.81,1.14-2.18,1.14-4.11V63.62c1.99,.83,3.94,1.68,5.83,2.58,21.6,10.31,33.5,23.68,33.5,37.66s-11.9,27.35-33.5,37.66Z"/>
</svg>